PathFileType	4	(X/Y/Z)	../Python\walking\Walking08\task.trc
DataRate	CameraRate	NumFrames	NumMarkers	Units	OrigDataRate	OrigDataStartFrame	OrigNumFrames
200.000000	200.000000	4	30	mm	200.000000	313	501
Frame#	Time	CLAV			STRN			RASI			LPSI			LASI			RTH1			RTH2			RTH3			RTB1			RTB2			RTB3			RHEE			RD5M			RTOE			LTB1			LTB2			LTB3			LTOE			LD5M			RPSI			LTH2			LTH1			PE03			T10			LTH3			PE01			PE02			C7			RBAK			LHEE			
		X1	Y1	Z1	X2	Y2	Z2	X3	Y3	Z3	X4	Y4	Z4	X5	Y5	Z5	X6	Y6	Z6	X7	Y7	Z7	X8	Y8	Z8	X9	Y9	Z9	X10	Y10	Z10	X11	Y11	Z11	X12	Y12	Z12	X13	Y13	Z13	X14	Y14	Z14	X15	Y15	Z15	X16	Y16	Z16	X17	Y17	Z17	X18	Y18	Z18	X19	Y19	Z19	X20	Y20	Z20	X21	Y21	Z21	X22	Y22	Z22	X23	Y23	Z23	X24	Y24	Z24	X25	Y25	Z25	X26	Y26	Z26	X27	Y27	Z27	X28	Y28	Z28	X29	Y29	Z29	X30	Y30	Z30	

314	1.565	1641.092529296876	1433.93115234375	168.7703857421876	1696.971435546876	1240.386962890625	173.4222717285157	1675.570434570313	1046.948974609375	319.2933044433595	1505.027465820313	1063.513793945313	139.0152435302735	1673.143920898438	1004.113708496094	46.73829269409181	1658.763061523438	783.9738159179692	362.0156250000001	1603.791137695313	754.9813232421877	361.7949218750001	1626.202026367188	713.253356933594	344.6001281738282	1659.000122070313	371.2043762207032	285.910369873047	1621.043334960938	322.818817138672	285.4625549316407	1658.322021484376	293.3101501464845	271.5101623535157	1593.735473632813	26.30722618103029	171.3321838378907	1752.700927734376	17.12558937072755	251.8760986328126	1807.430175781251	34.90591049194337	207.4398651123048	1534.826049804688	416.2154541015627	32.02190017700197	1486.75439453125	414.820739746094	45.4289016723633	1487.517333984375	353.0647277832032	37.86967086791994	1326.656127929688	83.82205200195315	81.49147033691409	1293.695556640625	111.7915954589844	42.88809204101564	1509.076904296875	1077.263793945313	237.8969726562501	1592.601928710938	650.7006835937502	57.64287185668948	1606.999023437501	690.343933105469	30.79013633728029	1500.168334960938	1053.955444335938	166.2062530517579	1468.20361328125	1262.147827148438	159.260238647461	1638.696166992188	618.2849121093752	32.56571197509767	1513.957763671875	1117.100952148438	180.8231048583985	1503.346313476563	1061.823486328125	216.7037506103517	1520.921752929688	1518.12646484375	155.8021087646485	1500.4912109375	1433.86572265625	326.4612731933595	1245.297607421875	270.1900939941407	101.1186752319337	
315	1.57	1647.620483398438	1434.6181640625	169.0329895019532	1703.227783203126	1241.0009765625	173.796127319336	1681.355590820313	1046.932861328125	320.0870361328126	1511.227661132813	1064.5087890625	139.5653076171876	1679.409301757813	1005.302551269532	47.29155349731447	1662.623046875001	783.7893066406255	362.2044067382814	1607.442016601563	755.157165527344	361.796844482422	1629.740600585938	713.3143310546877	344.6420898437501	1660.659790039063	371.2634277343751	285.6853027343751	1622.457885742188	323.0721740722657	285.2661743164064	1659.586059570313	293.3656616210939	271.3115234375001	1593.715209960938	26.4049472808838	171.289291381836	1752.684082031251	17.07605171203614	251.9340362548829	1807.602050781251	34.7782325744629	207.4574737548829	1548.903686523438	418.1479797363284	32.84488677978517	1500.924560546875	416.2863464355471	46.39146804809572	1502.025024414063	354.6780090332032	37.8805503845215	1345.364379882813	84.4607849121094	79.49448394775393	1311.898803710938	112.359115600586	41.26981353759767	1515.135131835938	1077.98828125	238.4795989990236	1602.565307617188	651.4069824218752	58.50592803955081	1615.958984375001	691.2509765625002	31.45577430725099	1506.288940429688	1054.876586914063	166.7164306640626	1474.508911132813	1263.015991210938	160.1309814453126	1648.970336914063	619.7482910156252	32.98383712768556	1520.125122070313	1117.961669921875	181.5302276611329	1509.381591796875	1062.596557617188	217.2332763671876	1527.529052734375	1518.948364257813	156.2384643554688	1507.350830078125	1434.84326171875	327.107147216797	1259.720947265625	268.9488220214845	101.5852279663087	
316	1.575	1654.133789062501	1435.281616210938	169.3134155273438	1709.465820312501	1241.596923828125	174.2112274169922	1687.069458007813	1046.900146484375	320.931121826172	1517.416381835938	1065.501708984375	140.0604400634766	1685.699707031251	1006.487487792969	47.92048645019533	1666.508056640626	783.5988159179692	362.380096435547	1611.140869140626	755.3035278320315	361.7817687988282	1633.352050781251	713.3605957031252	344.655975341797	1662.417114257813	371.3199462890626	285.416473388672	1623.964111328126	323.3314819335939	285.0338439941407	1660.934326171876	293.420135498047	271.0697326660157	1593.709838867188	26.52033615112306	171.2222595214844	1752.664794921876	17.02758789062501	251.9891967773439	1807.796508789063	34.64755630493165	207.4880523681642	1562.902099609376	420.0065917968752	33.68904113769533	1515.015991210938	417.5936279296877	47.3375587463379	1516.539916992188	356.1373291015626	37.89972305297853	1364.320678710938	84.91854095458987	77.76377868652347	1330.365112304688	112.6268844604493	39.8386917114258	1521.152709960938	1078.679077148438	239.0128936767579	1612.508911132813	652.1541137695315	59.29630661010745	1624.950439453126	692.1970825195315	32.10499572753908	1512.389526367188	1055.786987304688	167.1725616455079	1480.796997070313	1263.865478515625	161.0023193359376	1659.262329101563	621.2641601562502	33.42200088500978	1526.26904296875	1118.804931640625	182.2054290771485	1515.388549804688	1063.342407226563	217.7115478515626	1534.125610351563	1519.745971679688	156.6757049560547	1514.183349609375	1435.804931640625	327.755828857422	1274.306762695313	267.315887451172	101.9233856201172	
317	1.58	1660.633789062501	1435.920654296875	169.6126556396485	1715.686767578126	1242.173461914063	174.6681213378907	1692.715454101563	1046.854248046875	321.8229980468751	1523.593627929688	1066.486938476563	140.4984588623047	1692.013549804688	1007.664245605469	48.62434387207034	1670.426635742188	783.401733398438	362.5440979003907	1614.892333984376	755.4219970703127	361.7501831054689	1637.034545898438	713.391052246094	344.6447753906251	1664.268920898438	371.3695373535157	285.1113281250001	1625.557006835938	323.5936279296876	284.7673950195314	1662.362792968751	293.4697875976564	270.7907104492189	1593.720336914063	26.65403938293458	171.1301574707032	1752.643310546876	16.98032188415528	252.0400695800782	1808.013916015626	34.51362609863283	207.530487060547	1576.819213867188	421.7705078125002	34.53843688964845	1529.0234375	418.7332458496096	48.25205230712893	1531.04833984375	357.4301147460939	37.94239425659181	1383.514526367188	85.19687652587893	76.30006408691409	1349.082397460938	112.5987396240235	38.59758758544923	1527.130615234375	1079.333129882813	239.4936828613282	1622.441162109376	652.9426269531252	60.00734710693362	1633.988037109376	693.184265136719	32.73056793212892	1518.470947265625	1056.6826171875	167.5722656250001	1487.0693359375	1264.695434570313	161.8717346191407	1669.578857421876	622.8325195312502	33.87278747558595	1532.390625	1119.626708984375	182.8450164794922	1521.36865234375	1064.057983398438	218.1359252929689	1540.712768554688	1520.517944335938	157.1141052246094	1520.9892578125	1436.7490234375	328.4067382812501	1289.054321289063	265.2963867187501	102.1390457153321	
